<svg width="279" height="141" viewBox="0 0 279 141" fill="none" xmlns="http://www.w3.org/2000/svg">
<g clip-path="url(#clip0_800_374)">
<path d="M230.051 140.318C229.77 116.29 220.104 93.3417 203.148 76.4502C186.192 59.5588 163.313 50.0859 139.474 50.0859C115.634 50.0859 92.7559 59.5588 75.8 76.4502C58.844 93.3417 49.1777 116.29 48.8971 140.318" stroke="white" stroke-width="3" stroke-miterlimit="10"/>
<path opacity="0.66" d="M48.8971 140.318C49.1777 116.29 58.844 93.3417 75.8 76.4502C92.7559 59.5588 115.634 50.0859 139.474 50.0859C163.313 50.0859 186.192 59.5588 203.148 76.4502C220.104 93.3417 229.77 116.29 230.051 140.318" stroke="white" stroke-width="3" stroke-miterlimit="10"/>
<path d="M26.3688 140.988C26.6826 110.958 38.7373 82.2661 59.9148 61.1431C81.0924 40.02 109.682 28.1719 139.475 28.1719C169.268 28.1719 197.859 40.02 219.036 61.1431C240.214 82.2661 252.268 110.958 252.582 140.988" stroke="white" stroke-width="3" stroke-miterlimit="10"/>
<path d="M277.119 140.315C276.974 103.924 262.65 69.0483 237.236 43.2018C211.822 17.3553 177.351 2.60763 141.252 2.13663C105.153 1.66563 70.315 15.5091 44.2457 40.6838C18.1763 65.8586 2.9624 100.349 1.88242 136.724L1.88242 140.315" stroke="white" stroke-width="3" stroke-miterlimit="10"/>
</g>
<defs>
<clipPath id="clip0_800_374">
<rect width="141" height="279" fill="white" transform="translate(279) rotate(90)"/>
</clipPath>
</defs>
</svg>
