<svg width="58" height="81" viewBox="0 0 58 81" fill="none" xmlns="http://www.w3.org/2000/svg">
<g clip-path="url(#clip0_800_908)">
<path d="M50.1036 36.6447C47.7624 23.4283 39.7205 15.0859 26.8374 15.0859C12.2482 15.0859 1.62695 24.8209 1.62695 40.616C1.62695 47.5143 4.24588 55.0315 9.03402 59.7378L9.51019 79.414L32.988 79.0014L31.3081 66.8166C33.6625 67.0616 34.7207 67.1518 37.0354 67.0358C48.3047 66.4943 46.7307 62.9613 49.9052 50.9054L56.3864 45.8381L50.13 36.6189L50.1036 36.6447Z" fill="#EB691B"/>
<path d="M9.51015 81C8.62395 81 7.90969 80.3166 7.88324 79.4527L7.4203 60.3954C2.83056 55.586 0 48.0817 0 40.616C0 24.3954 10.7799 13.5 26.8374 13.5C39.9717 13.5 48.9925 21.7135 51.6511 36.0387L57.7222 44.9742C58.1852 45.6576 58.0397 46.5731 57.3916 47.0888L51.3469 51.8209C50.8707 53.6905 50.5003 55.341 50.1697 56.8109C48.4502 64.5731 47.6566 68.1189 37.1147 68.6218C35.4481 68.6991 34.4032 68.6862 33.1995 68.596L34.6148 78.7951C34.681 79.2464 34.5355 79.6977 34.2312 80.0329C33.927 80.3811 33.4905 80.5745 33.0276 80.5874L9.54983 81C9.54983 81 9.5366 81 9.52337 81H9.51015ZM26.8374 16.6719C12.7243 16.6719 3.25382 26.2908 3.25382 40.616C3.25382 47.5143 5.91243 54.4126 10.1847 58.6289C10.4757 58.9126 10.6477 59.2994 10.6609 59.712L11.0974 77.8152L31.1361 77.467L29.6944 67.0487C29.6283 66.5716 29.787 66.0817 30.1441 65.7335C30.488 65.3854 30.9906 65.2178 31.48 65.2693C33.9535 65.5272 34.7471 65.5917 36.9428 65.4885C44.9979 65.1017 45.3022 63.735 46.982 56.1791C47.3391 54.5415 47.7624 52.6848 48.3179 50.5573C48.4105 50.2221 48.5957 49.9255 48.8734 49.7192L54.1907 45.5544L48.7544 37.5473C48.6353 37.3668 48.5428 37.1605 48.5031 36.9413C46.1884 23.8925 38.4903 16.6977 26.8374 16.6977V16.6719Z" fill="white"/>
<path d="M16.19 57.0944C15.8328 57.0944 15.4757 56.9783 15.1847 56.7462C14.4837 56.2047 14.3647 55.2118 14.9202 54.5156L23.8616 43.5428C24.4171 42.8594 25.4356 42.7434 26.1498 43.2849C26.8509 43.8265 26.9699 44.8193 26.4144 45.5156L17.473 56.4884C17.1555 56.8881 16.6794 57.0815 16.2032 57.0815L16.19 57.0944Z" fill="#EB691B"/>
<path d="M23.253 68.6733C22.6975 68.6733 22.1552 68.3896 21.851 67.8997L14.8011 56.3209C14.3381 55.573 14.6026 54.5931 15.3698 54.1547C16.137 53.7034 17.1422 53.9613 17.5919 54.7091L24.6419 66.2879C25.1048 67.0358 24.8403 68.0157 24.0731 68.4541C23.8086 68.6088 23.5308 68.6733 23.2398 68.6733H23.253Z" fill="#EB691B"/>
<path d="M17.3342 58.2011C18.8607 57.5881 19.5883 55.8848 18.9595 54.3968C18.3306 52.9087 16.5834 52.1994 15.0569 52.8124C13.5304 53.4254 12.8028 55.1287 13.4316 56.6167C14.0605 58.1048 15.8077 58.8141 17.3342 58.2011Z" fill="#EB691B"/>
<path d="M26.2418 67.0874C26.2418 68.6991 24.9059 70.0014 23.2393 70.0014C21.5727 70.0014 20.25 68.6991 20.25 67.0874C20.25 65.4756 21.5859 64.1733 23.2393 64.1733C24.8926 64.1733 26.2418 65.4756 26.2418 67.0874Z" fill="#EB691B"/>
<path d="M28.1029 35.3137C28.481 33.7471 27.4848 32.1783 25.8777 31.8097C24.2707 31.4411 22.6614 32.4122 22.2833 33.9788C21.9052 35.5454 22.9014 37.1142 24.5085 37.4828C26.1155 37.8514 27.7248 36.8803 28.1029 35.3137Z" fill="#EB691B"/>
<path d="M37.8562 22.5002C38.9937 20.4887 39.6418 18.1678 39.6418 15.705C39.6418 7.90419 33.1474 1.57324 25.1451 1.57324C17.1428 1.57324 10.6484 7.90419 10.6484 15.705C10.6484 18.1678 11.2966 20.4758 12.4341 22.5002C12.4341 22.5002 12.4341 22.5002 12.4341 22.5131C12.6457 22.887 12.8706 23.2609 13.1219 23.6091C14.762 26.2523 18.7301 32.8154 18.7169 34.2982H31.5602C31.5337 32.8154 35.5018 26.2652 37.1552 23.6091C37.4065 23.248 37.6446 22.8741 37.8562 22.4873V22.5002Z" fill="#EB691B"/>
<path d="M31.5597 35.8968H18.7164C18.2799 35.8968 17.8698 35.7292 17.5524 35.4198C17.2614 35.1232 17.0895 34.7364 17.0895 34.3238C16.9969 33.7049 15.78 30.9585 11.7458 24.4599C11.4945 24.0989 11.2564 23.712 11.0315 23.3123C11.0051 23.2736 10.9918 23.235 10.9654 23.1963C9.68238 20.9011 9.00781 18.3095 9.00781 15.692C9.02104 7.05301 16.2429 0 25.1314 0C34.0199 0 41.255 7.05301 41.255 15.7178C41.255 18.361 40.5672 20.9656 39.271 23.2736C39.0329 23.6991 38.7816 24.0989 38.517 24.4857C35.0119 30.1461 33.3056 33.5501 33.1866 34.3367C33.1866 34.7493 33.0147 35.1361 32.7237 35.4327C32.4194 35.7292 31.9962 35.9097 31.5597 35.9097V35.8968ZM19.9729 32.7249H30.3031C30.8587 31.255 32.2607 28.4441 35.7526 22.8095C35.7659 22.7837 35.7791 22.7579 35.7923 22.745C36.0039 22.4355 36.2156 22.1003 36.414 21.7522C37.4457 19.9212 37.988 17.8324 37.988 15.7307C37.988 8.81948 32.221 3.18481 25.1182 3.18481C18.0153 3.18481 12.2484 8.80659 12.2484 15.7307C12.2484 17.8324 12.7907 19.9212 13.8224 21.7522C13.8224 21.7522 13.8224 21.765 13.8224 21.7779C14.0208 22.1261 14.2192 22.4484 14.4308 22.7579C14.4441 22.7837 14.4573 22.8095 14.4705 22.8224C17.9889 28.4957 19.3777 31.2808 19.9332 32.7507L19.9729 32.7249Z" fill="#EB691B"/>
<path d="M25.0517 19.47C24.1523 19.47 23.4248 18.7608 23.4248 17.884V11.1533C23.4248 10.2766 24.1523 9.56738 25.0517 9.56738C25.9511 9.56738 26.6786 10.2766 26.6786 11.1533V17.884C26.6786 18.7608 25.9511 19.47 25.0517 19.47Z" fill="white"/>
<path d="M26.9303 23.2352C26.9303 24.2539 26.0837 25.0662 25.052 25.0662C24.0204 25.0662 23.1738 24.241 23.1738 23.2352C23.1738 22.2295 24.0204 21.4043 25.052 21.4043C26.0837 21.4043 26.9303 22.2295 26.9303 23.2352Z" fill="white"/>
<path d="M31.5597 35.8968H18.7164C18.2799 35.8968 17.8698 35.7292 17.5524 35.4198C17.2614 35.1232 17.0895 34.7364 17.0895 34.3238C16.9969 33.7049 15.78 30.9585 11.7458 24.4599C11.4945 24.0989 11.2564 23.712 11.0315 23.3123C11.0051 23.2736 10.9918 23.235 10.9654 23.1963C9.68238 20.9011 9.00781 18.3095 9.00781 15.692C9.02104 7.05301 16.2429 0 25.1314 0C34.0199 0 41.255 7.05301 41.255 15.7178C41.255 18.361 40.5672 20.9656 39.271 23.2736C39.0329 23.6991 38.7816 24.0989 38.517 24.4857C35.0119 30.1461 33.3056 33.5501 33.1866 34.3367C33.1866 34.7493 33.0147 35.1361 32.7237 35.4327C32.4194 35.7292 31.9962 35.9097 31.5597 35.9097V35.8968ZM19.9729 32.7249H30.3031C30.8587 31.255 32.2607 28.4441 35.7526 22.8095C35.7659 22.7837 35.7791 22.7579 35.7923 22.745C36.0039 22.4355 36.2156 22.1003 36.414 21.7522C37.4457 19.9212 37.988 17.8324 37.988 15.7307C37.988 8.81948 32.221 3.18481 25.1182 3.18481C18.0153 3.18481 12.2484 8.80659 12.2484 15.7307C12.2484 17.8324 12.7907 19.9212 13.8224 21.7522C13.8224 21.7522 13.8224 21.765 13.8224 21.7779C14.0208 22.1261 14.2192 22.4484 14.4308 22.7579C14.4441 22.7837 14.4573 22.8095 14.4705 22.8224C17.9889 28.4957 19.3777 31.2808 19.9332 32.7507L19.9729 32.7249Z" fill="white"/>
<path d="M33.7686 33.2409C34.0199 34.5819 33.1072 35.8584 31.7449 36.1034L19.4438 38.2825C18.0682 38.5274 16.7588 37.6378 16.5075 36.3097C16.2562 34.9687 17.1688 33.6922 18.5312 33.4472L30.8322 31.2681C32.2078 31.0231 33.5173 31.9128 33.7686 33.2409Z" fill="white"/>
<path d="M18.9809 39.907C16.9836 39.907 15.2641 38.5144 14.907 36.5932C14.7086 35.5359 14.9467 34.4528 15.5815 33.576C16.2164 32.6863 17.1556 32.0932 18.2534 31.8998L30.5544 29.7207C30.8057 29.682 31.057 29.6562 31.2951 29.6562C33.2924 29.6562 35.0119 31.0488 35.369 32.97C35.5674 34.0273 35.3293 35.1104 34.6944 35.9872C34.0595 36.8769 33.1204 37.47 32.0226 37.6634L19.7216 39.8425C19.4703 39.8812 19.219 39.907 18.9809 39.907ZM31.2951 32.8153C31.2951 32.8153 31.1893 32.8153 31.1364 32.8282L18.8354 35.0073C18.5973 35.0459 18.3989 35.1749 18.2534 35.3683C18.1211 35.5617 18.0682 35.7938 18.1079 36.0259C18.2005 36.4901 18.6634 36.8124 19.1528 36.735L31.4671 34.556C31.7052 34.5173 31.9036 34.3883 32.0491 34.1949C32.1813 34.0015 32.2342 33.7694 32.1945 33.5373C32.1152 33.1247 31.7448 32.8153 31.3216 32.8153H31.2951Z" fill="#EB691B"/>
<path d="M28.1339 44.5358C28.1339 46.1476 26.798 47.4628 25.1314 47.4628C23.4648 47.4628 22.1289 46.1605 22.1289 44.5358C22.1289 42.9112 23.4648 41.6089 25.1314 41.6089C26.798 41.6089 28.1339 42.9112 28.1339 44.5358Z" fill="white"/>
<path d="M25.1308 49.0485C22.578 49.0485 20.5146 47.0242 20.5146 44.5485C20.5146 42.0729 22.5913 40.0356 25.1308 40.0356C27.6704 40.0356 29.7603 42.06 29.7603 44.5485C29.7603 47.0371 27.6836 49.0485 25.1308 49.0485ZM25.1308 43.2076C24.3769 43.2076 23.7552 43.8136 23.7552 44.5485C23.7552 45.2835 24.3769 45.8895 25.1308 45.8895C25.8848 45.8895 26.5064 45.2835 26.5064 44.5485C26.5064 43.8136 25.8848 43.2076 25.1308 43.2076Z" fill="#EB691B"/>
<path d="M33.7686 38.3854C34.0199 39.7264 33.1072 41.0029 31.7449 41.2479L19.4438 43.427C18.0682 43.672 16.7588 42.7823 16.5075 41.4542C16.2562 40.1132 17.1688 38.8367 18.5312 38.5917L30.8322 36.4127C32.2078 36.1677 33.5173 37.0574 33.7686 38.3854Z" fill="white"/>
<path d="M18.9809 45.0388C16.9836 45.0388 15.2641 43.6463 14.907 41.7251C14.7086 40.6677 14.9467 39.5846 15.5815 38.7079C16.2164 37.8182 17.1556 37.225 18.2534 37.0316L30.5544 34.8526C30.8057 34.8139 31.057 34.7881 31.2951 34.7881C33.2924 34.7881 35.0119 36.1806 35.369 38.1018C35.779 40.2938 34.2844 42.4084 32.0358 42.8081L19.7216 44.9872C19.4703 45.0259 19.219 45.0517 18.9809 45.0517V45.0388ZM31.2951 37.9471C31.2951 37.9471 31.1893 37.9471 31.1364 37.96L18.8354 40.1391C18.5973 40.1778 18.3989 40.3067 18.2534 40.5001C18.1211 40.6935 18.0682 40.9256 18.1079 41.1577C18.2005 41.6219 18.6634 41.9442 19.1528 41.854L31.4538 39.6749C31.9432 39.5846 32.2607 39.1334 32.1813 38.6563C32.102 38.2437 31.7316 37.9342 31.3083 37.9342L31.2951 37.9471Z" fill="#EB691B"/>
</g>
<defs>
<clipPath id="clip0_800_908">
<rect width="58" height="81" fill="white"/>
</clipPath>
</defs>
</svg>
