<svg width="65" height="71" viewBox="0 0 65 71" fill="none" xmlns="http://www.w3.org/2000/svg">
<path d="M21.6274 3.21606H21.6201L21.6128 3.21617C20.1154 3.23813 18.6518 3.6645 17.4088 4.45029C16.1651 5.23654 15.1924 6.35167 14.6313 7.66461C14.0695 8.97924 13.9511 10.4219 14.2953 11.8029C14.6387 13.1806 15.4227 14.419 16.5295 15.3677C18.6962 17.2679 21.621 18.2513 24.3022 18.7731C27.0034 19.2989 29.5734 19.3776 31.1165 19.3893L32.1232 18.3477C32.064 16.9269 31.8505 14.5782 31.1339 12.128C30.4206 9.6892 29.1821 7.05813 27.0096 5.17377C25.5978 3.92252 23.7249 3.22946 21.7871 3.21608L21.7802 4.21606V3.21606H21.6274ZM30.8949 20.2309C29.1407 20.2309 26.4144 20.1061 23.5685 19.4857C20.7131 18.8632 17.8215 17.7596 15.6576 15.8614C14.0144 14.3953 13.0944 12.4227 13.0596 10.3779C13.0248 8.33227 13.878 6.33571 15.4703 4.82584C17.0658 3.31296 19.2728 2.41576 21.6188 2.35487C23.9618 2.29406 26.2217 3.0732 27.9127 4.50022C30.7461 6.98996 32.1282 10.6421 32.7879 13.8354C33.4008 16.8025 33.3657 19.2477 33.3584 19.7553C33.3579 19.791 33.3575 19.8172 33.3575 19.8332V20.1747L32.9441 20.2051C32.8545 20.2006 32.7639 20.201 32.6934 20.2017C32.5739 20.2029 32.4248 20.2066 32.2587 20.2107L32.248 20.211C31.9019 20.2197 31.448 20.2309 30.8949 20.2309Z" stroke="#EB691B" stroke-width="2" stroke-miterlimit="1.41421"/>
<path d="M33.3155 21.1883H32.679H31.2787L31.1514 19.9176C31.1514 19.4902 30.2475 9.29057 36.1416 3.74601C37.0318 2.90185 38.0965 2.22505 39.275 1.75426C40.4534 1.28346 41.7225 1.0279 43.0098 1.00216C44.2971 0.976417 45.5774 1.181 46.7776 1.60422C47.9778 2.02745 49.0743 2.66102 50.0047 3.46878C50.935 4.27654 51.6809 5.24267 52.1997 6.31199C52.7186 7.38131 53.0002 8.53289 53.0286 9.70098C53.0569 10.8691 52.8315 12.0308 52.3651 13.1198C51.8986 14.2088 51.2004 15.2038 50.3102 16.048C45.1545 20.8417 35.8615 21.1883 33.3155 21.1883ZM43.2704 3.79222C42.3761 3.78901 41.4904 3.95124 40.6674 4.269C39.8444 4.58677 39.1015 5.0534 38.4839 5.6404C34.6649 9.23281 34.2957 15.5397 34.3212 18.2774C37.3382 18.1734 44.2761 17.5265 48.057 13.9572C48.9558 13.1071 49.5594 12.0358 49.7924 10.8768C50.0254 9.71778 49.8777 8.52216 49.3675 7.43876C48.8573 6.35536 48.0073 5.43201 46.9232 4.78363C45.8391 4.13526 44.5688 3.79048 43.2704 3.79222Z" stroke="#EB691B"/>
<path d="M36.8267 4.47439L36.8267 4.47439L36.8297 4.47163C37.6248 3.71761 38.581 3.10835 39.646 2.68289C40.711 2.25741 41.8611 2.02533 43.0298 2.00196C44.1986 1.97859 45.3594 2.16446 46.445 2.5473C47.5307 2.93013 48.5168 3.50125 49.349 4.22388C50.1811 4.94635 50.8424 5.80526 51.3 6.74852C51.7575 7.69144 52.004 8.70267 52.0289 9.72526C52.0537 10.7478 51.8565 11.7671 51.4458 12.7261C51.0356 13.684 50.4189 14.5659 49.6257 15.319C47.2432 17.5323 43.842 18.7664 40.6299 19.4369C37.436 20.1035 34.551 20.1883 33.3155 20.1883H32.679H32.1835L32.1495 19.8496C32.1479 19.8087 32.1453 19.7554 32.1421 19.6903C32.1056 18.9491 31.9939 16.6819 32.4244 13.9039C32.9207 10.7012 34.1155 7.02488 36.8267 4.47439ZM33.3212 18.2867L33.3307 19.3121L34.3556 19.2768C35.9017 19.2235 38.4632 19.0314 41.1362 18.3891C43.7909 17.7513 46.6681 16.6436 48.7434 14.6844L48.7441 14.6838C49.7856 13.6987 50.4971 12.4453 50.7728 11.0739C51.0487 9.70153 50.8725 8.28764 50.2722 7.01274C49.6726 5.73946 48.6812 4.66987 47.4365 3.92541C46.1931 3.18175 44.745 2.79068 43.2716 2.79222C42.2554 2.78887 41.2471 2.97322 40.3072 3.33613C39.3673 3.69904 38.5123 4.23425 37.7968 4.91381C35.6913 6.89539 34.5784 9.58005 33.9883 12.0468C33.3958 14.5235 33.3081 16.8736 33.3212 18.2867Z" stroke="#EB691B" stroke-width="2"/>
<path d="M21.0825 10.1359L21.8392 9.43018L32.3662 18.7225L31.6096 19.4282L21.0825 10.1359Z" stroke="#EB691B" stroke-width="2"/>
<path d="M33.106 18.7235L43.633 9.43115L44.3897 10.1369L33.8626 19.4292L33.106 18.7235Z" stroke="#EB691B" stroke-width="2"/>
<path d="M4.57812 55.1467V32.3672H5.76066V54.0883V54.6934L6.29672 54.9742L32.037 68.4544L32.501 68.6973L32.9649 68.4544L58.7052 54.9742L59.2413 54.6934V54.0883V32.3672H60.4238V55.1467L32.501 69.7778L4.57812 55.1467Z" stroke="#EB691B" stroke-width="2"/>
<path d="M10.1447 16.7184L2.71893 20.6037L2.18253 20.8844V21.4898V28.6631V29.2682L2.71865 29.549L32.0361 44.9004L32.5 45.1433L32.9639 44.9004L62.2814 29.549L62.8175 29.2682V28.6631V21.4898V20.8844L62.2811 20.6037L54.8553 16.7184L55.3705 15.9068L64 20.4312V29.7214L32.5 46.2239L1 29.7214V20.4312L9.62951 15.9068L10.1447 16.7184Z" stroke="#EB691B" stroke-width="2"/>
<path d="M32.0348 36.0594L32.4987 36.3024L32.9626 36.0595L62.2687 20.7179L62.7808 21.5208L32.4989 37.3829L2.22942 21.521L2.74146 20.7181L32.0348 36.0594Z" stroke="#EB691B" stroke-width="2"/>
<path d="M32 37H33.1825V67.3894H32V37Z" stroke="#EB691B" stroke-width="2"/>
<path d="M33.3451 20.6223L33.8641 19.8093L48.2868 27.3894L47.7678 28.2025L33.3451 20.6223Z" stroke="#EB691B" stroke-width="2"/>
<path d="M48.3047 29.2578H49.4872V35.8519H48.3047V29.2578Z" stroke="#EB691B" stroke-width="2"/>
<path d="M46.4246 60.6326L46.8371 38.2974L48.0194 38.3153L47.6069 60.6505L46.4246 60.6326Z" stroke="#EB691B" stroke-width="2"/>
<path d="M16.724 27.3777L31.1467 19.7975L31.6657 20.6106L17.243 28.1907L16.724 27.3777Z" stroke="#EB691B" stroke-width="2"/>
<path d="M15.5117 29.2578H16.6942V35.8519H15.5117V29.2578Z" stroke="#EB691B" stroke-width="2"/>
<path d="M16.9717 38.3204L18.154 38.3022L18.5707 60.6374L17.3884 60.6555L16.9717 38.3204Z" stroke="#EB691B" stroke-width="2"/>
</svg>
