<svg width="65" height="70" viewBox="0 0 65 70" fill="none" xmlns="http://www.w3.org/2000/svg">
<path d="M30.8949 20.2309C27.3051 20.2309 19.6797 19.7227 14.995 15.6104C13.1541 13.9693 12.0996 11.7364 12.0598 9.39495C12.0199 7.05353 12.998 4.79208 14.7822 3.10021C16.5665 1.40833 19.0132 0.422163 21.5929 0.355208C24.1725 0.288252 26.6774 1.1459 28.5653 2.74246C34.714 8.13685 34.3575 18.3596 34.3575 18.8332V20.1038L32.9445 20.2078C32.7535 20.1847 32.0279 20.2309 30.8949 20.2309ZM21.7802 3.21606H21.6274C20.3084 3.2354 19.0256 3.61125 17.9432 4.29555C16.8608 4.97985 16.0278 5.9415 15.5509 7.05759C15.0739 8.17367 14.9746 9.39346 15.2656 10.561C15.5566 11.7286 16.2248 12.7909 17.1846 13.6121C21.1309 17.0774 28.0816 17.3662 31.1241 17.3893C31.0095 14.6402 30.2966 8.34477 26.3503 4.92563C25.1281 3.84065 23.4899 3.22786 21.7802 3.21606Z" fill="white"/>
<path d="M33.3155 20.1883H32.679H31.2787L31.1514 18.9176C31.1514 18.4902 30.2475 8.29057 36.1416 2.74601C37.0318 1.90185 38.0965 1.22505 39.275 0.754256C40.4534 0.283465 41.7225 0.027903 43.0098 0.00215999C44.2971 -0.023583 45.5774 0.180997 46.7776 0.604222C47.9778 1.02745 49.0743 1.66102 50.0047 2.46878C50.935 3.27654 51.6809 4.24267 52.1997 5.31199C52.7186 6.38131 53.0002 7.53289 53.0286 8.70098C53.0569 9.86906 52.8315 11.0308 52.3651 12.1198C51.8986 13.2088 51.2004 14.2038 50.3102 15.048C45.1545 19.8417 35.8615 20.1883 33.3155 20.1883ZM43.2704 2.79222C42.3761 2.78901 41.4904 2.95124 40.6674 3.269C39.8444 3.58677 39.1015 4.0534 38.4839 4.6404C34.6649 8.23281 34.2957 14.5397 34.3212 17.2774C37.3382 17.1734 44.2761 16.5265 48.057 12.9572C48.9558 12.1071 49.5594 11.0358 49.7924 9.8768C50.0254 8.71778 49.8777 7.52216 49.3675 6.43876C48.8573 5.35535 48.0073 4.43201 46.9232 3.78363C45.8391 3.13525 44.5688 2.79048 43.2704 2.79222Z" fill="white"/>
<path d="M21.8207 7.08631L19.6016 9.15625L31.6281 19.7721L33.8472 17.7022L21.8207 7.08631Z" fill="white"/>
<path d="M43.6515 7.08729L31.625 17.7031L33.8441 19.7731L45.8706 9.15723L43.6515 7.08729Z" fill="white"/>
<path d="M32.501 69.9068L3.57812 54.7517V30.3672H6.76066V53.0883L32.501 66.5685L58.2413 53.0883V30.3672H61.4238V54.7517L32.501 69.9068Z" fill="white"/>
<path d="M34.0927 44.6875H30.9102V68.2403H34.0927V44.6875Z" fill="white"/>
<path d="M32.5 46.3528L0 29.3264V18.8264L9.98042 13.5938L11.5717 16.1004L3.18253 20.4898V27.6631L32.5 43.0145L61.8175 27.6631V20.4898L53.4283 16.1004L55.0196 13.5938L65 18.8264V29.3264L32.5 46.3528Z" fill="white"/>
<path d="M32.4988 37.5119L0.800781 20.9013L2.39205 18.4062L32.4988 34.1736L62.6182 18.4062L64.2095 20.9013L32.4988 37.5119Z" fill="white"/>
<path d="M34.0927 35.8516H30.9102V68.241H34.0927V35.8516Z" fill="white"/>
<path d="M33.517 17.5011L31.9219 20L48.115 28.5106L49.7101 26.0117L33.517 17.5011Z" fill="white"/>
<path d="M50.4872 27.2578H47.3047V35.8519H50.4872V27.2578Z" fill="white"/>
<path d="M45.8556 36.2823L45.4062 60.6172L48.5883 60.6656L49.0377 36.3307L45.8556 36.2823Z" fill="white"/>
<path d="M31.4939 17.4894L15.3008 26L16.8959 28.4989L33.089 19.9883L31.4939 17.4894Z" fill="white"/>
<path d="M17.6942 27.2578H14.5117V35.8519H17.6942V27.2578Z" fill="white"/>
<path d="M19.1352 36.2871L15.9531 36.3359L16.4072 60.6707L19.5893 60.6218L19.1352 36.2871Z" fill="white"/>
</svg>
