<svg width="77" height="54" viewBox="0 0 77 54" fill="none" xmlns="http://www.w3.org/2000/svg">
<path d="M66.2129 26.8266L61.2029 32.8132L47.4296 22.5799L43.4229 25.6466C41.6994 26.9716 39.5869 27.691 37.4129 27.6932C35.2388 27.6918 33.126 26.9723 31.4029 25.6466L29.7062 24.3466C29.4163 24.125 29.1775 23.8436 29.0061 23.5215C28.8347 23.1994 28.7347 22.8441 28.7129 22.4799C28.6885 22.1164 28.7405 21.7517 28.8657 21.4095C28.9908 21.0673 29.1863 20.7552 29.4396 20.4932L41.6896 7.97656C41.9206 7.74109 42.196 7.5536 42.4997 7.42489C42.8035 7.29618 43.1297 7.22878 43.4596 7.22656H56.1929" stroke="#EB691B" stroke-width="3" stroke-linecap="round" stroke-linejoin="round"/>
<path d="M33.6628 51.999L24.2295 49.589C23.845 49.491 23.4895 49.3024 23.1928 49.039L16.1328 42.7656" stroke="#EB691B" stroke-width="3" stroke-linecap="round" stroke-linejoin="round"/>
<path d="M11.1211 26.4844L28.2311 40.151C28.5057 40.3709 28.8238 40.5299 29.1644 40.6177L47.3078 45.251C47.7283 45.3601 48.1702 45.3555 48.5883 45.2378C49.0065 45.1201 49.3859 44.8934 49.6878 44.581L61.2044 32.8144" stroke="#EB691B" stroke-width="3" stroke-linecap="round" stroke-linejoin="round"/>
<path d="M21.3164 6.88646L37.3831 2.10313C37.9565 1.93139 38.573 1.97525 39.1164 2.22646L49.9364 7.22646" stroke="#EB691B" stroke-width="3" stroke-linecap="round" stroke-linejoin="round"/>
<path d="M73.9525 22.8764L66.2159 26.8298L56.1992 7.22976L64.0126 3.23976C64.3026 3.0909 64.6194 3.00127 64.9445 2.97609C65.2695 2.95091 65.5964 2.99068 65.9059 3.09309C66.5336 3.30355 67.0532 3.75257 67.3525 4.34309L75.0526 19.4064C75.3616 20.0134 75.4195 20.7176 75.2137 21.3669C75.0079 22.0161 74.5548 22.5584 73.9525 22.8764V22.8764Z" stroke="#EB691B" stroke-width="3" stroke-linecap="round" stroke-linejoin="round"/>
<path d="M11.1197 26.486L7.25304 24.5093L3.38637 22.5327C3.08539 22.3804 2.81813 22.1692 2.60052 21.9115C2.38291 21.6538 2.21939 21.3549 2.11971 21.0327C1.91478 20.3796 1.97464 19.6721 2.28637 19.0627L9.98304 3.99934C10.2823 3.40882 10.802 2.9598 11.4297 2.74934C11.7392 2.64693 12.0661 2.60716 12.3911 2.63234C12.7162 2.65752 13.033 2.74715 13.323 2.89601L21.133 6.88934L11.1164 26.4893L11.1197 26.486Z" stroke="#EB691B" stroke-width="3" stroke-linecap="round" stroke-linejoin="round"/>
</svg>
