<svg width="67" height="57" viewBox="0 0 67 57" fill="none" xmlns="http://www.w3.org/2000/svg">
<g clip-path="url(#clip0_800_829)">
<path d="M21.72 1.55979C17.05 1.30979 11.58 1.80979 7.5 2.90979V46.3798C11.58 45.2898 17.05 44.7898 21.72 45.0298C25.91 45.2498 29.88 46.0498 33.5 47.3098V3.83979C29.88 2.57979 25.91 1.77979 21.72 1.55979Z" stroke="white" stroke-width="3"/>
<path d="M13.5 11.7898C15.42 11.4898 17.39 11.3398 19.38 11.3398C20.07 11.3398 20.76 11.3598 21.45 11.3898C23.86 11.5198 26.22 11.8598 28.49 12.4098" stroke="white" stroke-width="3"/>
<path d="M13.5 19.1199C15.42 18.8199 17.39 18.6699 19.38 18.6699C20.07 18.6699 20.76 18.6899 21.45 18.7199C23.86 18.8499 26.22 19.1899 28.49 19.7399" stroke="white" stroke-width="3"/>
<path d="M13.5 26.45C15.42 26.15 17.39 26 19.38 26C20.07 26 20.76 26.02 21.45 26.05C23.86 26.18 26.22 26.52 28.49 27.07" stroke="white" stroke-width="3"/>
<path d="M13.5 33.7898C15.42 33.4898 17.39 33.3398 19.38 33.3398C20.07 33.3398 20.76 33.3598 21.45 33.3898C23.86 33.5198 26.22 33.8598 28.49 34.4098" stroke="white" stroke-width="3"/>
<path d="M53.2791 11.7898C51.3591 11.4898 49.3891 11.3398 47.3991 11.3398C46.7091 11.3398 46.0191 11.3598 45.3291 11.3898C42.9191 11.5198 40.5591 11.8598 38.2891 12.4098" stroke="white" stroke-width="3"/>
<path d="M53.2791 19.1199C51.3591 18.8199 49.3891 18.6699 47.3991 18.6699C46.7091 18.6699 46.0191 18.6899 45.3291 18.7199C42.9191 18.8499 40.5591 19.1899 38.2891 19.7399" stroke="white" stroke-width="3"/>
<path d="M53.2791 26.45C51.3591 26.15 49.3891 26 47.3991 26C46.7091 26 46.0191 26.02 45.3291 26.05C42.9191 26.18 40.5591 26.52 38.2891 27.07" stroke="white" stroke-width="3"/>
<path d="M53.2791 33.7898C51.3591 33.4898 49.3891 33.3398 47.3991 33.3398C46.7091 33.3398 46.0191 33.3598 45.3291 33.3898C42.9191 33.5198 40.5591 33.8598 38.2891 34.4098" stroke="white" stroke-width="3"/>
<path d="M45.28 1.55979C49.95 1.30979 55.42 1.80979 59.5 2.90979V46.3798C55.42 45.2898 49.95 44.7898 45.28 45.0298C41.09 45.2498 37.12 46.0498 33.5 47.3098V3.83979C37.12 2.57979 41.09 1.77979 45.28 1.55979Z" stroke="white" stroke-width="3"/>
<path d="M7.5 9.02979H1.5V53.0298H29.39C30.24 54.4198 31.76 55.3598 33.5 55.3598C35.24 55.3598 36.76 54.4198 37.61 53.0298H65.5V9.02979H59.5" stroke="white" stroke-width="3"/>
</g>
<defs>
<clipPath id="clip0_800_829">
<rect width="67" height="56.86" fill="white"/>
</clipPath>
</defs>
</svg>
