<svg width="58" height="81" viewBox="0 0 58 81" fill="none" xmlns="http://www.w3.org/2000/svg">
    <g clip-path="url(#clip0_800_796)">
        <path
            d="M33.4782 79.3749C33.37 79.4988 33.2046 79.581 33.0041 79.5876C33.0026 79.5877 33.0012 79.5877 32.9998 79.5878L9.54766 80H9.54759H9.54752H9.54745H9.54738H9.54731H9.54724H9.54717H9.5471H9.54702H9.54695H9.54687H9.54679H9.54672H9.54664H9.54656H9.54648H9.5464H9.54632H9.54623H9.54615H9.54607H9.54598H9.54589H9.54581H9.54572H9.54563H9.54554H9.54545H9.54536H9.54527H9.54518H9.54509H9.54499H9.5449H9.5448H9.54471H9.54461H9.54451H9.54442H9.54432H9.54422H9.54412H9.54401H9.54391H9.54381H9.54371H9.5436H9.5435H9.54339H9.54329H9.54318H9.54307H9.54297H9.54286H9.54275H9.54264H9.54253H9.54242H9.5423H9.54219H9.54208H9.54196H9.54185H9.54174H9.54168H9.54162H9.5415H9.54144H9.54139H9.54133H9.54127H9.54121H9.54115H9.54109H9.54103H9.54097H9.54091H9.54085H9.54079H9.54073H9.54067H9.54061H9.54055H9.54049H9.54043H9.54037H9.54031H9.54025H9.54019H9.54012H9.54006H9.54H9.53994H9.53988H9.53981H9.53975H9.53969H9.53963H9.53957H9.5395H9.53944H9.53938H9.53931H9.53925H9.53919H9.53912H9.53906H9.53899H9.53893H9.53887H9.5388H9.53874H9.53867H9.53861H9.53854H9.53848H9.53841H9.53835H9.53828H9.53822H9.53815H9.53809H9.53802H9.53796H9.53789H9.53782H9.53776H9.53769H9.53762H9.53756H9.53749H9.53742H9.53736H9.53729H9.53722H9.53716H9.53709H9.53702H9.53695H9.53689H9.53682H9.53675H9.53668H9.53661H9.53655H9.53648H9.53641H9.53634H9.53627H9.5362H9.53613H9.53607H9.536H9.53593H9.53586H9.53579H9.53572H9.53565H9.53558H9.53551H9.53544H9.53537H9.5353H9.53523H9.53516H9.53509H9.53502H9.53495H9.53488H9.53481H9.53474H9.53467H9.5346H9.53453H9.53445H9.53438H9.53431H9.53424H9.53417H9.5341H9.53403H9.53395H9.53388H9.53381H9.53374H9.53367H9.5336H9.53352H9.53345H9.53338H9.53331H9.53323H9.53316H9.53309H9.53302H9.53294H9.53287H9.5328H9.53272H9.53265H9.53258H9.53251H9.53243H9.53236H9.53228H9.53221H9.53214H9.53206H9.53199H9.53192H9.53184H9.53177H9.53169H9.53162H9.53155H9.53147H9.5314H9.53132H9.53125H9.53118H9.5311H9.53103H9.53095H9.53088H9.5308H9.53073H9.53065H9.53058H9.5305H9.53043H9.53035H9.53028H9.5302H9.53013H9.53005H9.52998H9.5299H9.52983H9.52975H9.52968H9.5296H9.52952H9.52945H9.52937H9.5293H9.52922H9.52915H9.52907H9.52899H9.52892H9.52884H9.52877H9.52869H9.52861H9.52854H9.52846H9.52839H9.52831H9.52823H9.52816H9.52808H9.528H9.52793H9.52785H9.52777H9.5277H9.52762H9.52754H9.52747H9.52739H9.52731H9.52724H9.52716H9.52708H9.52701H9.52693H9.52685H9.52678H9.5267H9.52662H9.52655H9.52647H9.52639H9.52631H9.52624H9.52616H9.52608H9.52601H9.52593H9.52585H9.52577H9.5257H9.52562H9.52554H9.52547H9.52539H9.52531H9.52523H9.52516H9.52508H9.525H9.52492H9.52485H9.52477H9.52469H9.52461H9.52454H9.52446H9.52438H9.5243H9.52423H9.52415H9.52407H9.52399H9.52392H9.52384H9.52376H9.52368H9.52361H9.52353H9.52345H9.52337H9.51015C9.14872 80 8.8935 79.7309 8.88285 79.4245C8.88282 79.4237 8.88279 79.4229 8.88277 79.4221L8.42 60.3711L8.41061 59.9847L8.14373 59.705C3.75237 55.1034 1 47.8564 1 40.616C1 32.7317 3.61583 26.2179 8.10793 21.6787C12.5991 17.1404 19.0409 14.5 26.8374 14.5C33.1855 14.5 38.4756 16.4796 42.5 20.1374C46.5328 23.8028 49.3689 29.2219 50.6679 36.2212L50.7061 36.4273L50.8239 36.6007L56.8943 45.5351C57.0593 45.7787 57.0145 46.1091 56.7712 46.3045C56.7704 46.3051 56.7696 46.3057 56.7689 46.3063L50.7304 51.0335L50.462 51.2437L50.3778 51.5741C49.9058 53.4273 49.5372 55.0661 49.2109 56.5167L49.194 56.5914L49.1933 56.5946C48.7601 58.5504 48.3995 60.1707 47.9389 61.5419C47.4819 62.9026 46.9477 63.9486 46.2079 64.7689C44.7563 66.3785 42.2745 67.3744 37.0683 67.6228C35.4331 67.6988 34.4295 67.6854 33.2743 67.5988L32.0387 67.5061L32.209 68.7334L33.6243 78.9326L33.6254 78.9401C33.6465 79.0842 33.6018 79.2385 33.4907 79.3609L33.4844 79.3679L33.4782 79.3749ZM27.8374 15.7151V15.6719H26.8374C19.5472 15.6719 13.3832 18.161 9.0407 22.5703C4.69957 26.9783 2.25382 33.229 2.25382 40.616C2.25382 47.7392 4.99126 54.9085 9.48228 59.3407L9.48668 59.345C9.59206 59.4477 9.65565 59.5883 9.6613 59.7411C9.66134 59.7421 9.66137 59.7431 9.6614 59.7441L10.0977 77.8393L10.1216 78.8323L11.1147 78.815L31.1535 78.4669L32.2813 78.4473L32.1267 77.33L30.685 66.9116L30.6849 66.9114C30.6614 66.7415 30.718 66.5706 30.8422 66.4496L30.8489 66.443L30.8556 66.4363C30.9733 66.3171 31.1698 66.2422 31.3752 66.2638L31.3763 66.2639C33.8749 66.5244 34.7238 66.5939 36.9897 66.4874L36.9907 66.4874C40.964 66.2966 43.4655 65.8755 45.0713 64.218C45.87 63.3937 46.3767 62.3377 46.7881 61.0772C47.1938 59.8341 47.5366 58.2924 47.9482 56.4408L47.9582 56.3961L47.959 56.3922C48.3141 54.7642 48.7335 52.9244 49.2833 50.8181C49.3254 50.6695 49.3962 50.5765 49.4697 50.522L49.48 50.5144L49.4901 50.5065L54.8073 46.3417L55.5427 45.7656L55.018 44.9927L49.5862 36.9921C49.5282 36.9031 49.498 36.8235 49.4871 36.7631L48.5031 36.9413L49.4877 36.7666C48.3035 30.0908 45.7238 24.8108 41.8548 21.1956C38.1903 17.7713 33.4443 15.9114 27.8374 15.7151Z"
            stroke="#EB691B" stroke-width="2" />
        <path
            d="M28.1029 35.3137C28.481 33.7471 27.4848 32.1783 25.8777 31.8097C24.2707 31.4411 22.6614 32.4122 22.2833 33.9788C21.9052 35.5454 22.9014 37.1142 24.5085 37.4828C26.1155 37.8514 27.7248 36.8803 28.1029 35.3137Z"
            fill="#EB691B" />
        <path
            d="M37.8562 22.5002C38.9937 20.4887 39.6418 18.1678 39.6418 15.705C39.6418 7.90419 33.1474 1.57324 25.1451 1.57324C17.1428 1.57324 10.6484 7.90419 10.6484 15.705C10.6484 18.1678 11.2966 20.4758 12.4341 22.5002C12.4341 22.5002 12.4341 22.5002 12.4341 22.5131C12.6457 22.887 12.8706 23.2609 13.1219 23.6091C14.762 26.2523 18.7301 32.8154 18.7169 34.2982H31.5602C31.5337 32.8154 35.5018 26.2652 37.1552 23.6091C37.4065 23.248 37.6446 22.8741 37.8562 22.4873V22.5002Z"
            fill="white" />
        <path
            d="M31.5597 35.8968H18.7164C18.2799 35.8968 17.8698 35.7292 17.5524 35.4198C17.2614 35.1232 17.0895 34.7364 17.0895 34.3238C16.9969 33.7049 15.78 30.9585 11.7458 24.4599C11.4945 24.0989 11.2564 23.712 11.0315 23.3123C11.0051 23.2736 10.9918 23.235 10.9654 23.1963C9.68238 20.9011 9.00781 18.3095 9.00781 15.692C9.02104 7.05301 16.2429 0 25.1314 0C34.0199 0 41.255 7.05301 41.255 15.7178C41.255 18.361 40.5672 20.9656 39.271 23.2736C39.0329 23.6991 38.7816 24.0989 38.517 24.4857C35.0119 30.1461 33.3056 33.5501 33.1866 34.3367C33.1866 34.7493 33.0147 35.1361 32.7237 35.4327C32.4194 35.7292 31.9962 35.9097 31.5597 35.9097V35.8968ZM19.9729 32.7249H30.3031C30.8587 31.255 32.2607 28.4441 35.7526 22.8095C35.7659 22.7837 35.7791 22.7579 35.7923 22.745C36.0039 22.4355 36.2156 22.1003 36.414 21.7522C37.4457 19.9212 37.988 17.8324 37.988 15.7307C37.988 8.81948 32.221 3.18481 25.1182 3.18481C18.0153 3.18481 12.2484 8.80659 12.2484 15.7307C12.2484 17.8324 12.7907 19.9212 13.8224 21.7522C13.8224 21.7522 13.8224 21.765 13.8224 21.7779C14.0208 22.1261 14.2192 22.4484 14.4308 22.7579C14.4441 22.7837 14.4573 22.8095 14.4705 22.8224C17.9889 28.4957 19.3777 31.2808 19.9332 32.7507L19.9729 32.7249Z"
            fill="white" />
        <path
            d="M25.0517 18.47C24.6804 18.47 24.4248 18.1846 24.4248 17.884V11.1533C24.4248 10.8527 24.6804 10.5674 25.0517 10.5674C25.423 10.5674 25.6786 10.8527 25.6786 11.1533V17.884C25.6786 18.1846 25.423 18.47 25.0517 18.47Z"
            stroke="#EB691B" stroke-width="2" />
        <path
            d="M26 23C26 23.5558 25.5509 24 25 24C24.4537 24 24 23.5463 24 23C24 22.4537 24.4537 22 25 22C25.5463 22 26 22.4537 26 23Z"
            stroke="#EB691B" stroke-width="2" />
        <path
            d="M32.1866 34.3367C32.1866 34.4612 32.1367 34.5992 32.0178 34.7241C31.9254 34.8112 31.8063 34.8718 31.684 34.8969H31.5597H18.7164C18.5476 34.8969 18.3901 34.8361 18.2585 34.7114C18.1394 34.5865 18.0895 34.4484 18.0895 34.3238V34.2494L18.0784 34.1758C18.0345 33.8819 17.893 33.4897 17.7027 33.0432C17.4993 32.5662 17.2003 31.9375 16.7829 31.1352C15.9474 29.5293 14.6208 27.1951 12.5954 23.9325L12.5815 23.9101L12.5665 23.8886C12.3369 23.5587 12.1156 23.1998 11.9031 22.822L11.8816 22.7839L11.8791 22.7802C11.8734 22.7692 11.8657 22.7548 11.8573 22.7396C11.8482 22.7233 11.8372 22.7042 11.8242 22.6831C10.6337 20.5433 10.0079 18.1293 10.0078 15.6927C10.0206 7.62876 16.7716 1 25.1314 1C33.4918 1 40.255 7.62917 40.255 15.7178C40.255 18.1878 39.6122 20.6239 38.3991 22.784L38.3983 22.7853C38.1765 23.1817 37.9414 23.556 37.6916 23.9212L37.6788 23.9399L37.6669 23.9592C35.9063 26.8023 34.5916 29.0882 33.6988 30.77C33.2529 31.61 32.9077 32.3077 32.6638 32.8538C32.4372 33.3609 32.2507 33.8378 32.1979 34.187L32.1866 34.2614V34.3367ZM19.4369 34.2659L20.2693 33.7249H30.3031H30.9942L31.2386 33.0785C31.7575 31.7055 33.1148 28.9643 36.6026 23.3362L36.6239 23.3018L36.6269 23.2961C36.8498 22.9694 37.0728 22.6157 37.2828 22.2473L37.2852 22.2431C38.4022 20.2607 38.988 18.0025 38.988 15.7307C38.988 8.24398 32.7498 2.18481 25.1182 2.18481C17.4872 2.18481 11.2484 8.23043 11.2484 15.7307C11.2484 17.9136 11.7892 20.0838 12.8224 22.0089V22.0429L12.9536 22.2731C13.153 22.6231 13.356 22.9544 13.5741 23.2764C13.5785 23.2843 13.5832 23.2924 13.588 23.3006L13.5884 23.3015C13.5971 23.3162 13.6167 23.3496 13.6472 23.3922C17.1419 29.0302 18.4804 31.7351 18.9978 33.1042L19.4369 34.2659Z"
            stroke="#EB691B" stroke-width="2" />
        <path
            d="M33.7686 33.2409C34.0199 34.5819 33.1072 35.8584 31.7449 36.1034L19.4438 38.2825C18.0682 38.5274 16.7588 37.6378 16.5075 36.3097C16.2562 34.9687 17.1688 33.6922 18.5312 33.4472L30.8322 31.2681C32.2078 31.0231 33.5173 31.9128 33.7686 33.2409Z"
            fill="white" />
        <mask id="path-9-inside-1_800_796" fill="white">
            <path
                d="M18.9809 39.907C16.9836 39.907 15.2641 38.5144 14.907 36.5932C14.7086 35.5359 14.9467 34.4528 15.5815 33.576C16.2164 32.6863 17.1556 32.0932 18.2534 31.8998L30.5544 29.7207C30.8057 29.682 31.057 29.6562 31.2951 29.6562C33.2924 29.6562 35.0119 31.0488 35.369 32.97C35.5674 34.0273 35.3293 35.1104 34.6944 35.9872C34.0595 36.8769 33.1204 37.47 32.0226 37.6634L19.7216 39.8425C19.4703 39.8812 19.219 39.907 18.9809 39.907ZM31.2951 32.8153C31.2951 32.8153 31.1893 32.8153 31.1364 32.8282L18.8354 35.0073C18.5973 35.0459 18.3989 35.1749 18.2534 35.3683C18.1211 35.5617 18.0682 35.7938 18.1079 36.0259C18.2005 36.4901 18.6634 36.8124 19.1528 36.735L31.4671 34.556C31.7052 34.5173 31.9036 34.3883 32.0491 34.1949C32.1813 34.0015 32.2342 33.7694 32.1945 33.5373C32.1152 33.1247 31.7448 32.8153 31.3216 32.8153H31.2951Z" />
        </mask>
        <path
            d="M14.907 36.5932L16.8733 36.2277L16.8727 36.2244L14.907 36.5932ZM15.5815 33.576L17.2015 34.749L17.2095 34.7378L15.5815 33.576ZM18.2534 31.8998L18.6004 33.8695L18.6022 33.8691L18.2534 31.8998ZM30.5544 29.7207L30.2502 27.744L30.2278 27.7474L30.2056 27.7514L30.5544 29.7207ZM35.369 32.97L33.4027 33.3355L33.4033 33.3389L35.369 32.97ZM34.6944 35.9872L33.0745 34.8142L33.0665 34.8254L34.6944 35.9872ZM32.0226 37.6634L31.6756 35.6937L31.6737 35.6941L32.0226 37.6634ZM19.7216 39.8425L20.0258 41.8192L20.0482 41.8158L20.0704 41.8118L19.7216 39.8425ZM31.2951 32.8153L31.2951 34.8153H31.2951V32.8153ZM31.1364 32.8282L31.4853 34.7975L31.548 34.7864L31.61 34.7713L31.1364 32.8282ZM18.8354 35.0073L19.1561 36.9814L19.1702 36.9791L19.1842 36.9766L18.8354 35.0073ZM18.2534 35.3683L16.6551 34.166L16.628 34.202L16.6025 34.2393L18.2534 35.3683ZM18.1079 36.0259L16.1365 36.3629L16.1411 36.3901L16.1465 36.4171L18.1079 36.0259ZM19.1528 36.735L19.4651 38.7105L19.4832 38.7076L19.5013 38.7045L19.1528 36.735ZM31.4671 34.556L31.1463 32.5818L31.1324 32.5841L31.1186 32.5866L31.4671 34.556ZM32.0491 34.1949L33.6473 35.3973L33.6744 35.3612L33.6999 35.3239L32.0491 34.1949ZM32.1945 33.5373L34.1659 33.2003L34.1625 33.1799L34.1585 33.1596L32.1945 33.5373ZM18.9809 37.907C17.9079 37.907 17.0472 37.1634 16.8733 36.2277L12.9407 36.9587C13.481 39.8655 16.0593 41.907 18.9809 41.907V37.907ZM16.8727 36.2244C16.7747 35.7021 16.8913 35.1773 17.2015 34.749L13.9616 32.403C13.002 33.7283 12.6425 35.3697 12.9413 36.9621L16.8727 36.2244ZM17.2095 34.7378C17.5372 34.2787 18.0144 33.9727 18.6004 33.8695L17.9064 29.9301C16.2967 30.2137 14.8957 31.094 13.9536 32.4143L17.2095 34.7378ZM18.6022 33.8691L30.9033 31.6901L30.2056 27.7514L17.9045 29.9305L18.6022 33.8691ZM30.8587 31.6974C31.0509 31.6679 31.1937 31.6562 31.2951 31.6562V27.6562C30.9203 27.6562 30.5606 27.6962 30.2502 27.744L30.8587 31.6974ZM31.2951 31.6562C32.3681 31.6562 33.2288 32.3999 33.4027 33.3355L37.3353 32.6045C36.795 29.6977 34.2166 27.6562 31.2951 27.6562V31.6562ZM33.4033 33.3389C33.5013 33.8611 33.3847 34.3859 33.0745 34.8142L36.3143 37.1602C37.274 35.8349 37.6335 34.1935 37.3347 32.6011L33.4033 33.3389ZM33.0665 34.8254C32.7388 35.2846 32.2616 35.5905 31.6756 35.6937L32.3696 39.6331C33.9793 39.3495 35.3803 38.4692 36.3224 37.1489L33.0665 34.8254ZM31.6737 35.6941L19.3727 37.8732L20.0704 41.8118L32.3715 39.6328L31.6737 35.6941ZM19.4173 37.8658C19.2251 37.8954 19.0823 37.907 18.9809 37.907V41.907C19.3557 41.907 19.7154 41.867 20.0258 41.8192L19.4173 37.8658ZM31.2951 32.8153C31.2952 30.8153 31.295 30.8153 31.2949 30.8153C31.2949 30.8153 31.2948 30.8153 31.2947 30.8153C31.2945 30.8153 31.2943 30.8153 31.2942 30.8153C31.2938 30.8153 31.2935 30.8153 31.2932 30.8153C31.2925 30.8153 31.2917 30.8153 31.291 30.8153C31.2894 30.8153 31.2878 30.8153 31.286 30.8153C31.2824 30.8153 31.2783 30.8153 31.2737 30.8154C31.2646 30.8154 31.2533 30.8156 31.2403 30.8158C31.2151 30.8163 31.1796 30.8172 31.1383 30.8193C31.107 30.8208 30.8947 30.8285 30.6628 30.885L31.61 34.7713C31.4958 34.7991 31.4102 34.8079 31.3913 34.8099C31.3602 34.8131 31.3393 34.8142 31.3329 34.8145C31.3247 34.8149 31.3189 34.8151 31.3152 34.8151C31.313 34.8152 31.3104 34.8152 31.3072 34.8152C31.3056 34.8152 31.3039 34.8153 31.3019 34.8153C31.3009 34.8153 31.2998 34.8153 31.2987 34.8153C31.2981 34.8153 31.2975 34.8153 31.2969 34.8153C31.2966 34.8153 31.2963 34.8153 31.296 34.8153C31.2959 34.8153 31.2957 34.8153 31.2956 34.8153C31.2955 34.8153 31.2954 34.8153 31.2953 34.8153C31.2952 34.8153 31.2951 34.8153 31.2951 32.8153ZM30.7875 30.8588L18.4865 33.0379L19.1842 36.9766L31.4853 34.7975L30.7875 30.8588ZM18.5146 33.0331C17.7193 33.1624 17.0806 33.6004 16.6551 34.166L19.8516 36.5706C19.7172 36.7493 19.4752 36.9295 19.1561 36.9814L18.5146 33.0331ZM16.6025 34.2393C16.184 34.8513 16.0073 35.6073 16.1365 36.3629L20.0793 35.6888C20.1291 35.9803 20.0583 36.2721 19.9043 36.4973L16.6025 34.2393ZM16.1465 36.4171C16.4553 37.965 17.947 38.9505 19.4651 38.7105L18.8405 34.7596C19.3798 34.6743 19.9457 35.0152 20.0693 35.6347L16.1465 36.4171ZM19.5013 38.7045L31.8156 36.5254L31.1186 32.5866L18.8043 34.7656L19.5013 38.7045ZM31.7878 36.5301C32.5831 36.4009 33.2219 35.9628 33.6473 35.3973L30.4508 32.9926C30.5852 32.8139 30.8272 32.6337 31.1463 32.5818L31.7878 36.5301ZM33.6999 35.3239C34.1185 34.7119 34.2951 33.9559 34.1659 33.2003L30.2232 33.8744C30.1733 33.583 30.2442 33.2911 30.3982 33.0659L33.6999 35.3239ZM34.1585 33.1596C33.8995 31.8127 32.7112 30.8153 31.3216 30.8153V34.8153C30.7784 34.8153 30.3309 34.4368 30.2305 33.9151L34.1585 33.1596ZM31.3216 30.8153H31.2951V34.8153H31.3216V30.8153Z"
            fill="#EB691B" mask="url(#path-9-inside-1_800_796)" />
        <path
            d="M28.1339 44.5358C28.1339 46.1476 26.798 47.4628 25.1314 47.4628C23.4648 47.4628 22.1289 46.1605 22.1289 44.5358C22.1289 42.9112 23.4648 41.6089 25.1314 41.6089C26.798 41.6089 28.1339 42.9112 28.1339 44.5358Z"
            fill="white" />
        <path
            d="M25.1308 48.0485C23.108 48.0485 21.5146 46.4499 21.5146 44.5485C21.5146 42.6454 23.1231 41.0356 25.1308 41.0356C27.1442 41.0356 28.7603 42.638 28.7603 44.5485C28.7603 46.4572 27.1593 48.0485 25.1308 48.0485ZM25.1308 42.2076C23.8488 42.2076 22.7552 43.2374 22.7552 44.5485C22.7552 45.8597 23.8488 46.8895 25.1308 46.8895C26.4129 46.8895 27.5064 45.8597 27.5064 44.5485C27.5064 43.2374 26.4129 42.2076 25.1308 42.2076Z"
            stroke="#EB691B" stroke-width="2" />
        <path
            d="M33.7686 38.3854C34.0199 39.7264 33.1072 41.0029 31.7449 41.2479L19.4438 43.427C18.0682 43.672 16.7588 42.7823 16.5075 41.4542C16.2562 40.1132 17.1688 38.8367 18.5312 38.5917L30.8322 36.4127C32.2078 36.1677 33.5173 37.0574 33.7686 38.3854Z"
            fill="white" />
        <path
            d="M31.8608 41.8236L19.5587 44.0005C19.4488 44.0172 19.345 44.0301 19.2476 44.0388H18.9809C17.4457 44.0388 16.1557 42.9707 15.8901 41.5423L15.8898 41.5406C15.7416 40.7508 15.919 39.9469 16.3915 39.2944L16.3915 39.2944L16.3955 39.2887C16.8768 38.6143 17.585 38.1648 18.4269 38.0165L18.4278 38.0163L30.7173 35.8393C30.9347 35.8062 31.1281 35.7881 31.2951 35.7881C32.8303 35.7881 34.1203 36.8562 34.3858 38.2846L34.3861 38.2857C34.6901 39.9108 33.583 41.517 31.8616 41.8234C31.8615 41.8235 31.8614 41.8235 31.8614 41.8235C31.8612 41.8235 31.861 41.8235 31.8608 41.8236ZM30.9016 36.9342L30.8366 36.9975L18.6667 39.1534C18.1538 39.239 17.7382 39.5215 17.4543 39.899L17.4407 39.917L17.428 39.9356C17.1525 40.3383 17.0378 40.8324 17.1222 41.3262L17.1245 41.3398L17.1272 41.3533C17.3271 42.3553 18.3077 43.0245 19.3301 42.8381C19.3315 42.8379 19.3328 42.8377 19.3342 42.8374L31.6283 40.6596L31.6283 40.6596L31.6352 40.6583C32.6496 40.4712 33.3385 39.5187 33.1678 38.4922L33.1657 38.4798L33.1633 38.4674C32.9941 37.5877 32.2148 36.9342 31.3083 36.9342H30.9016Z"
            stroke="#EB691B" stroke-width="2" />
    </g>
    <defs>
        <clipPath id="clip0_800_796">
            <rect width="58" height="81" fill="white" />
        </clipPath>
    </defs>
</svg>